<?xml version="1.0" encoding="UTF-8" standalone="no"?>
<svg
   xmlns:dc="http://purl.org/dc/elements/1.1/"
   xmlns:cc="http://creativecommons.org/ns#"
   xmlns:rdf="http://www.w3.org/1999/02/22-rdf-syntax-ns#"
   xmlns:svg="http://www.w3.org/2000/svg"
   xmlns="http://www.w3.org/2000/svg"
   xmlns:sodipodi="http://sodipodi.sourceforge.net/DTD/sodipodi-0.dtd"
   xmlns:inkscape="http://www.inkscape.org/namespaces/inkscape"
   id="svg3783"
   version="1.1"
   viewBox="0 0 167.828 22"
   height="22"
   width="167.828"
   sodipodi:docname="logo.svg"
   inkscape:version="0.92.2 (5c3e80d, 2017-08-06)">
  <sodipodi:namedview
     pagecolor="#ffffff"
     bordercolor="#666666"
     borderopacity="1"
     objecttolerance="10"
     gridtolerance="10"
     guidetolerance="10"
     inkscape:pageopacity="0"
     inkscape:pageshadow="2"
     inkscape:window-width="1920"
     inkscape:window-height="1021"
     id="namedview17"
     showgrid="false"
     inkscape:zoom="3.3486664"
     inkscape:cx="234.25138"
     inkscape:cy="2.6350907"
     inkscape:window-x="0"
     inkscape:window-y="27"
     inkscape:window-maximized="1"
     inkscape:current-layer="Page-1" />
  <metadata
     id="metadata3787">
    <rdf:RDF>
      <cc:Work
         rdf:about="">
        <dc:format>image/svg+xml</dc:format>
        <dc:type
           rdf:resource="http://purl.org/dc/dcmitype/StillImage" />
        <dc:title>logo neo cloud 62</dc:title>
      </cc:Work>
    </rdf:RDF>
  </metadata>
  <!-- Generator: Sketch 47 (45396) - http://www.bohemiancoding.com/sketch -->
  <title
     id="title3763">logo neo cloud 62</title>
  <desc
     id="desc3765">Created with Sketch.</desc>
  <defs
     id="defs3767" />
  <g
     id="Page-1"
     style="fill:none;fill-rule:evenodd;stroke:none;stroke-width:1"
     transform="matrix(0.3547829,0,0,0.36184372,0,-0.43431056)">
    <g
       id="logo-neo-cloud-62"
       style="fill:#f1303b;fill-rule:nonzero">
      <path
         style="fill:#ffffff"
         id="Shape_3_"
         d="m 143.84,0.88571429 c -16.82857,0 -30.46857,13.63999971 -30.46857,30.46857171 0,16.828571 13.64,30.468571 30.46857,30.468571 16.82857,0 30.46857,-13.64 30.46857,-30.468571 0,-16.828572 -13.64,-30.46857171 -30.46857,-30.46857171 z m 0,50.66285671 c -11.16,0 -20.19429,-9.034285 -20.19429,-20.194285 0,-11.16 9.03429,-20.194286 20.19429,-20.194286 11.16,0 20.19429,9.034286 20.19429,20.194286 0,11.16 -9.03429,20.194285 -20.19429,20.194285 z"
         inkscape:connector-curvature="0" />
      <path
         style="fill:#ffffff"
         id="Shape"
         d="m 97.605714,35.96 c 2.834286,0 5.314286,-2.302857 5.314286,-5.314286 0,-3.011428 -2.30286,-5.314285 -5.314286,-5.314285 H 71.742857 V 11.337143 h 25.862857 c 2.834286,0 5.314286,-2.3028573 5.314286,-5.3142859 0,-3.0114285 -2.30286,-5.31428567 -5.314286,-5.31428567 h -31 c -2.834285,0 -5.314285,2.30285717 -5.314285,5.31428567 V 56.331429 c 0,2.834285 2.302857,5.314285 5.314285,5.314285 h 31 c 2.834286,0 5.314286,-2.302857 5.314286,-5.314285 0,-3.011429 -2.30286,-5.314286 -5.314286,-5.314286 H 71.742857 V 35.782857 h 25.862857 z"
         inkscape:connector-curvature="0" />
      <path
         style="fill:#ffffff"
         id="path3771"
         d="m 45.348571,0.88571429 c -2.834285,0 -5.314285,2.30285711 -5.314285,5.31428571 V 42.16 L 10.628571,3.3657143 C 9.7428571,2.1257143 8.3257143,1.4171429 6.9085714,1.24 6.3771429,1.0628571 5.8457143,0.88571429 5.3142857,0.88571429 2.48,0.88571429 0,3.1885714 0,6.2 v 50.308571 c 0,2.834286 2.3028571,5.314286 5.3142857,5.314286 2.8342857,0 5.1371433,-2.302857 5.3142853,-5.137143 v -35.96 L 39.68,59.342857 c 0.177143,0.177143 0.354286,0.354286 0.531429,0.531429 0.885714,1.24 2.48,1.948571 4.428571,1.948571 0.177143,0 0.354286,0 0.354286,0 0.177143,0 0.177143,0 0.354285,0 2.834286,0 5.314286,-2.302857 5.314286,-5.137143 V 6.2 c 0,-3.0114286 -2.302857,-5.31428571 -5.314286,-5.31428571 z"
         inkscape:connector-curvature="0" />
      <path
         style="fill:#ffffff"
         id="Shape_2_"
         d="m 227.27429,48.005714 c -3.54286,2.657143 -7.97143,4.074286 -12.93143,3.72 C 203.89143,51.194286 195.38857,42.691429 195.03429,32.24 c -0.53143,-11.691429 8.85714,-21.08 20.37142,-21.08 4.42858,0 8.50286,1.417143 11.86858,3.72 1.59428,1.24 3.89714,1.062857 5.31428,-0.531429 l 1.59429,-1.594285 c 1.77143,-1.771429 1.59428,-4.7828574 -0.53143,-6.2000003 C 228.33714,2.6571429 221.60571,0.53142857 214.52,0.70857143 198.22286,1.24 185.11429,14.702857 184.76,30.822857 184.40571,48.005714 198.4,62 215.40571,62 c 6.73143,0 13.10858,-2.302857 18.06858,-5.845714 1.94857,-1.417143 2.30285,-4.428572 0.53142,-6.2 L 232.41143,48.36 c -1.24,-1.24 -3.36572,-1.417143 -5.13714,-0.354286 z"
         inkscape:connector-curvature="0" />
      <path
         style="fill:#ffffff"
         id="Shape_1_"
         d="m 319.21143,0.70857143 c -16.82857,0 -30.64572,13.63999957 -30.64572,30.64571457 0,16.828571 13.64,30.645714 30.64572,30.645714 17.00571,0 30.64571,-13.64 30.64571,-30.645714 C 349.68,14.348571 336.04,0.70857143 319.21143,0.70857143 Z m 0,50.83999957 c -11.16,0 -20.19429,-9.034285 -20.19429,-20.194285 0,-11.16 9.03429,-20.194286 20.19429,-20.194286 11.16,0 20.19428,9.034286 20.19428,20.194286 0,11.16 -9.03428,20.194285 -20.19428,20.194285 z"
         inkscape:connector-curvature="0" />
      <path
         style="fill:#ffffff"
         id="path3775"
         d="m 281.83429,51.371429 h -10.45143 c 0,0 -0.17715,0 -0.17715,0 H 256.50286 V 6.0228571 c 0,-3.0114285 -2.30286,-5.31428567 -5.31429,-5.31428567 -3.01143,0 -5.31428,2.30285717 -5.31428,5.31428567 V 56.685714 c 0,3.011429 2.30285,5.314286 5.31428,5.314286 h 20.01714 c 0,0 0,0 0.17715,0 h 10.45143 c 2.83428,0 5.13714,-2.302857 5.13714,-5.314286 0,-3.011428 -2.30286,-5.314285 -5.13714,-5.314285 z"
         inkscape:connector-curvature="0" />
      <path
         style="fill:#ffffff"
         id="path3777"
         d="m 441.79429,0.88571429 c 0,0 0,0 0,0 v 0 c 0,0 0,0 0,0 v 0 h -14.52572 c -0.17714,0 -0.35428,0 -0.35428,0 -0.17715,0 -0.17715,0 -0.35429,0 -3.01143,0 -5.31429,2.30285711 -5.31429,5.31428571 v 49.6 0.885714 1.24 C 421.24571,60.051429 423.01714,62 425.32,62 h 16.29714 C 458.44571,62 472.08571,48.36 472.08571,31.354286 472.26286,14.525714 458.62286,0.88571429 441.79429,0.88571429 Z m 0,50.66285671 h -9.92 V 11.16 h 12.22285 c 0,0 0,0 0,0 10.09715,1.24 17.89143,9.742857 17.89143,20.017143 0,11.337143 -9.21143,20.371428 -20.19428,20.371428 z"
         inkscape:connector-curvature="0" />
      <path
         style="fill:#ffffff"
         id="path3779"
         d="m 405.65714,0.70857143 c -2.83428,0 -5.13714,2.30285717 -5.13714,5.31428567 V 36.668571 c 0,8.325715 -6.73143,14.88 -14.88,14.88 -8.32571,0 -14.88,-6.731428 -14.88,-14.88 V 6.0228571 c 0,-3.0114285 -2.30286,-5.31428567 -5.13714,-5.31428567 -2.83429,0 -5.13715,2.30285717 -5.13715,5.31428567 V 36.668571 C 360.48571,50.662857 371.82286,62 385.81714,62 399.81143,62 411.14857,50.662857 411.14857,36.668571 V 6.0228571 c -0.35428,-3.0114285 -2.65714,-5.31428567 -5.49143,-5.31428567 z"
         inkscape:connector-curvature="0" />
    </g>
  </g>
</svg>
