<?xml version="1.0" encoding="UTF-8"?>
<svg width="473px" height="62px" viewBox="0 0 473 62" version="1.1" xmlns="http://www.w3.org/2000/svg" xmlns:xlink="http://www.w3.org/1999/xlink">
    <!-- Generator: Sketch 47 (45396) - http://www.bohemiancoding.com/sketch -->
    <title>logo neo cloud 62</title>
    <desc>Created with Sketch.</desc>
    <defs></defs>
    <g id="Page-1" stroke="none" stroke-width="1" fill="none" fill-rule="evenodd">
        <g id="logo-neo-cloud-62" fill-rule="nonzero" fill="#F1303B">
            <path d="M143.84,0.885714286 C127.011429,0.885714286 113.371429,14.5257143 113.371429,31.3542857 C113.371429,48.1828571 127.011429,61.8228571 143.84,61.8228571 C160.668571,61.8228571 174.308571,48.1828571 174.308571,31.3542857 C174.308571,14.5257143 160.668571,0.885714286 143.84,0.885714286 Z M143.84,51.5485714 C132.68,51.5485714 123.645714,42.5142857 123.645714,31.3542857 C123.645714,20.1942857 132.68,11.16 143.84,11.16 C155,11.16 164.034286,20.1942857 164.034286,31.3542857 C164.034286,42.5142857 155,51.5485714 143.84,51.5485714 Z" id="Shape_3_"></path>
            <path d="M97.6057143,35.96 C100.44,35.96 102.92,33.6571429 102.92,30.6457143 C102.92,27.6342857 100.617143,25.3314286 97.6057143,25.3314286 L71.7428571,25.3314286 L71.7428571,11.3371429 L97.6057143,11.3371429 C100.44,11.3371429 102.92,9.03428571 102.92,6.02285714 C102.92,3.01142857 100.617143,0.708571429 97.6057143,0.708571429 L66.6057143,0.708571429 C63.7714286,0.708571429 61.2914286,3.01142857 61.2914286,6.02285714 L61.2914286,56.3314286 C61.2914286,59.1657143 63.5942857,61.6457143 66.6057143,61.6457143 L97.6057143,61.6457143 C100.44,61.6457143 102.92,59.3428571 102.92,56.3314286 C102.92,53.32 100.617143,51.0171429 97.6057143,51.0171429 L71.7428571,51.0171429 L71.7428571,35.7828571 L97.6057143,35.7828571 L97.6057143,35.96 Z" id="Shape"></path>
            <path d="M45.3485714,0.885714286 C42.5142857,0.885714286 40.0342857,3.18857143 40.0342857,6.2 L40.0342857,42.16 L10.6285714,3.36571429 C9.74285714,2.12571429 8.32571429,1.41714286 6.90857143,1.24 C6.37714286,1.06285714 5.84571429,0.885714286 5.31428571,0.885714286 C2.48,0.885714286 0,3.18857143 0,6.2 L0,56.5085714 C0,59.3428571 2.30285714,61.8228571 5.31428571,61.8228571 C8.14857143,61.8228571 10.4514286,59.52 10.6285714,56.6857143 L10.6285714,20.7257143 L39.68,59.3428571 C39.8571429,59.52 40.0342857,59.6971429 40.2114286,59.8742857 C41.0971429,61.1142857 42.6914286,61.8228571 44.64,61.8228571 C44.8171429,61.8228571 44.9942857,61.8228571 44.9942857,61.8228571 C45.1714286,61.8228571 45.1714286,61.8228571 45.3485714,61.8228571 C48.1828571,61.8228571 50.6628571,59.52 50.6628571,56.6857143 L50.6628571,6.2 C50.6628571,3.18857143 48.36,0.885714286 45.3485714,0.885714286 Z" id="Shape"></path>
            <path d="M227.274286,48.0057143 C223.731429,50.6628571 219.302857,52.08 214.342857,51.7257143 C203.891429,51.1942857 195.388571,42.6914286 195.034286,32.24 C194.502857,20.5485714 203.891429,11.16 215.405714,11.16 C219.834286,11.16 223.908571,12.5771429 227.274286,14.88 C228.868571,16.12 231.171429,15.9428571 232.588571,14.3485714 L234.182857,12.7542857 C235.954286,10.9828571 235.777143,7.97142857 233.651429,6.55428571 C228.337143,2.65714286 221.605714,0.531428571 214.52,0.708571429 C198.222857,1.24 185.114286,14.7028571 184.76,30.8228571 C184.405714,48.0057143 198.4,62 215.405714,62 C222.137143,62 228.514286,59.6971429 233.474286,56.1542857 C235.422857,54.7371429 235.777143,51.7257143 234.005714,49.9542857 L232.411429,48.36 C231.171429,47.12 229.045714,46.9428571 227.274286,48.0057143 Z" id="Shape_2_"></path>
            <path d="M319.211429,0.708571429 C302.382857,0.708571429 288.565714,14.3485714 288.565714,31.3542857 C288.565714,48.1828571 302.205714,62 319.211429,62 C336.217143,62 349.857143,48.36 349.857143,31.3542857 C349.68,14.3485714 336.04,0.708571429 319.211429,0.708571429 Z M319.211429,51.5485714 C308.051429,51.5485714 299.017143,42.5142857 299.017143,31.3542857 C299.017143,20.1942857 308.051429,11.16 319.211429,11.16 C330.371429,11.16 339.405714,20.1942857 339.405714,31.3542857 C339.405714,42.5142857 330.371429,51.5485714 319.211429,51.5485714 Z" id="Shape_1_"></path>
            <path d="M281.834286,51.3714286 L271.382857,51.3714286 C271.382857,51.3714286 271.205714,51.3714286 271.205714,51.3714286 L256.502857,51.3714286 L256.502857,6.02285714 C256.502857,3.01142857 254.2,0.708571429 251.188571,0.708571429 C248.177143,0.708571429 245.874286,3.01142857 245.874286,6.02285714 L245.874286,56.6857143 C245.874286,59.6971429 248.177143,62 251.188571,62 L271.205714,62 C271.205714,62 271.205714,62 271.382857,62 L281.834286,62 C284.668571,62 286.971429,59.6971429 286.971429,56.6857143 C286.971429,53.6742857 284.668571,51.3714286 281.834286,51.3714286 Z" id="Shape"></path>
            <path d="M441.794286,0.885714286 C441.794286,0.885714286 441.794286,0.885714286 441.794286,0.885714286 L441.794286,0.885714286 C441.794286,0.885714286 441.794286,0.885714286 441.794286,0.885714286 L441.794286,0.885714286 L427.268571,0.885714286 C427.091429,0.885714286 426.914286,0.885714286 426.914286,0.885714286 C426.737143,0.885714286 426.737143,0.885714286 426.56,0.885714286 C423.548571,0.885714286 421.245714,3.18857143 421.245714,6.2 L421.245714,55.8 L421.245714,56.6857143 L421.245714,57.9257143 C421.245714,60.0514286 423.017143,62 425.32,62 L441.617143,62 C458.445714,62 472.085714,48.36 472.085714,31.3542857 C472.262857,14.5257143 458.622857,0.885714286 441.794286,0.885714286 Z M441.794286,51.5485714 L431.874286,51.5485714 L431.874286,11.16 L444.097143,11.16 C444.097143,11.16 444.097143,11.16 444.097143,11.16 C454.194286,12.4 461.988571,20.9028571 461.988571,31.1771429 C461.988571,42.5142857 452.777143,51.5485714 441.794286,51.5485714 Z" id="Shape"></path>
            <path d="M405.657143,0.708571429 C402.822857,0.708571429 400.52,3.01142857 400.52,6.02285714 L400.52,36.6685714 C400.52,44.9942857 393.788571,51.5485714 385.64,51.5485714 C377.314286,51.5485714 370.76,44.8171429 370.76,36.6685714 L370.76,6.02285714 C370.76,3.01142857 368.457143,0.708571429 365.622857,0.708571429 C362.788571,0.708571429 360.485714,3.01142857 360.485714,6.02285714 L360.485714,36.6685714 C360.485714,50.6628571 371.822857,62 385.817143,62 C399.811429,62 411.148571,50.6628571 411.148571,36.6685714 L411.148571,6.02285714 C410.794286,3.01142857 408.491429,0.708571429 405.657143,0.708571429 Z" id="Shape"></path>
        </g>
    </g>
</svg>